<?xml version="1.0" encoding="utf-8"?>
<svg version="1.1" xmlns:xlink="http://www.w3.org/1999/xlink" width="10px" height="2595px" preserveAspectRatio="xMidYMin meet" viewBox="1216 756  8 2595" xmlns="http://www.w3.org/2000/svg">
  <path d="M 1161 3346  L 1215 3346  A 5 5 0 0 0 1220 3341 L 1220 2547  A 3 3 0 0 0 1223 2544 A 3 3 0 0 0 1220 2541 L 1220 1808  A 3 3 0 0 0 1223 1805 A 3 3 0 0 0 1220 1802 L 1220 1412  A 3 3 0 0 0 1223 1409 A 3 3 0 0 0 1220 1406 L 1220 793  A 3 3 0 0 0 1223 790 A 3 3 0 0 0 1220 787 L 1220 766  A 5 5 0 0 1 1225 761 L 1290 761  " stroke-width="2" stroke="#0099cc" fill="none" />
</svg>