<?xml version="1.0" encoding="utf-8"?>
<svg version="1.1" xmlns:xlink="http://www.w3.org/1999/xlink" width="64px" height="10px" preserveAspectRatio="xMinYMid meet" viewBox="1161 2861  64 8" xmlns="http://www.w3.org/2000/svg">
  <path d="M 1161 2865  L 1215 2865  A 5 5 0 0 0 1220 2860 L 1220 1808  A 3 3 0 0 0 1223 1805 A 3 3 0 0 0 1220 1802 L 1220 1412  A 3 3 0 0 0 1223 1409 A 3 3 0 0 0 1220 1406 L 1220 793  A 3 3 0 0 0 1223 790 A 3 3 0 0 0 1220 787 L 1220 766  A 5 5 0 0 1 1225 761 L 1290 761  " stroke-width="2" stroke="#0099cc" fill="none" />
</svg>