<?xml version="1.0" encoding="utf-8"?>
<svg version="1.1" xmlns:xlink="http://www.w3.org/1999/xlink" width="61px" height="32px" xmlns="http://www.w3.org/2000/svg">
  <defs>
    <mask fill="white" id="clip8">
      <path d="M 0 28  L 0 4  C 0 1.75999999999999  1.20629213483145 0  2.74157303370787 0  L 35.6404494382022 0  L 58.2584269662921 0  C 59.7937078651685 0  61 1.75999999999999  61 4  L 61 28  C 61 30.24  59.7937078651685 32  58.2584269662921 32  L 49.3483146067416 32  L 43.8651685393258 32  L 20.561797752809 32  L 2.74157303370787 32  C 1.20629213483145 32  0 30.24  0 28  Z " fill-rule="evenodd" />
    </mask>
  </defs>
  <g transform="matrix(1 0 0 1 -1247 -225 )">
    <path d="M 0 28  L 0 4  C 0 1.75999999999999  1.20629213483145 0  2.74157303370787 0  L 35.6404494382022 0  L 58.2584269662921 0  C 59.7937078651685 0  61 1.75999999999999  61 4  L 61 28  C 61 30.24  59.7937078651685 32  58.2584269662921 32  L 49.3483146067416 32  L 43.8651685393258 32  L 20.561797752809 32  L 2.74157303370787 32  C 1.20629213483145 32  0 30.24  0 28  Z " fill-rule="nonzero" fill="#ffffff" stroke="none" transform="matrix(1 0 0 1 1247 225 )" />
    <path d="M 0 28  L 0 4  C 0 1.75999999999999  1.20629213483145 0  2.74157303370787 0  L 35.6404494382022 0  L 58.2584269662921 0  C 59.7937078651685 0  61 1.75999999999999  61 4  L 61 28  C 61 30.24  59.7937078651685 32  58.2584269662921 32  L 49.3483146067416 32  L 43.8651685393258 32  L 20.561797752809 32  L 2.74157303370787 32  C 1.20629213483145 32  0 30.24  0 28  Z " stroke-width="2" stroke="#d9d9d9" fill="none" transform="matrix(1 0 0 1 1247 225 )" mask="url(#clip8)" />
  </g>
</svg>