<?xml version="1.0" encoding="utf-8"?>
<svg version="1.1" xmlns:xlink="http://www.w3.org/1999/xlink" width="75px" height="32px" xmlns="http://www.w3.org/2000/svg">
  <g transform="matrix(1 0 0 1 -489 -1421 )">
    <path d="M 490 1425  A 3 3 0 0 1 493 1422 L 560 1422  A 3 3 0 0 1 563 1425 L 563 1449  A 3 3 0 0 1 560 1452 L 493 1452  A 3 3 0 0 1 490 1449 L 490 1425  Z " fill-rule="nonzero" fill="#ffffff" stroke="none" />
    <path d="M 489.5 1425  A 3.5 3.5 0 0 1 493 1421.5 L 560 1421.5  A 3.5 3.5 0 0 1 563.5 1425 L 563.5 1449  A 3.5 3.5 0 0 1 560 1452.5 L 493 1452.5  A 3.5 3.5 0 0 1 489.5 1449 L 489.5 1425  Z " stroke-width="1" stroke-dasharray="3,1" stroke="#d9d9d9" fill="none" stroke-dashoffset="0.5" />
  </g>
</svg>